Coordinates
nRows=10
nColumns=38

# SIMM Motion File Header:
name Coordinates
datacolumns 38
datarows 10
otherdata 1
range 1.00600000000000000000 1.01500000000000010000

Units are S.I. units (second, meters, Newtons, ...)
Angles are in degrees.

endheader
time	pelvis_tilt	pelvis_list	pelvis_rotation	pelvis_tx	pelvis_ty	pelvis_tz	hip_flexion_r	hip_adduction_r	hip_rotation_r	knee_angle_r	ankle_angle_r	subtalar_angle_r	mtp_angle_r	hip_flexion_l	hip_adduction_l	hip_rotation_l	knee_angle_l	ankle_angle_l	subtalar_angle_l	mtp_angle_l	lumbar_extension	lumbar_bending	lumbar_rotation	arm_flex_r	arm_add_r	arm_rot_r	elbow_flex_r	pro_sup_r	wrist_flex_r	wrist_dev_r	arm_flex_l	arm_add_l	arm_rot_l	elbow_flex_l	pro_sup_l	wrist_flex_l	wrist_dev_l
      1.00600000000000000000	      0.20568397411677622000	      8.03721096489343980000	     -0.42249199886975497000	      0.77088491001471626000	      0.97483215994133299000	     -0.29181138445722860000	     32.23544908293934000000	     -5.85148426410131160000	      2.24078534855835400000	    -93.46271297173429100000	     -2.32358209920657940000	     -0.00000000000006513245	     -0.00000000000000253157	      0.93915872148837420000	     15.82458218655932700000	      8.54124334455947930000	    -33.39886232835458200000	     23.16173958785437400000	      0.00000000000002877917	     -0.00000000000007417679	    -14.69750591312655700000	    -12.55852680281280000000	     -9.26521177515560800000	    -24.07053741181851300000	    -19.88467192881492500000	     -1.06191625489573190000	     84.28428680163804600000	     70.66677846407304700000	      0.00000000000000017817	      0.00000000000003288213	     -2.77668794088968650000	    -22.45375945087461400000	     -2.71303482952577380000	     94.76358209223317900000	     94.49016157428663100000	      0.00000000000009222199	      0.00000000000000142192
      1.00700000000000010000	      0.20770136547220996000	      7.92267210056539020000	     -0.41206704876716210000	      0.77105146852439477000	      0.97537052270901459000	     -0.29172049023315461000	     32.42892314811752600000	     -5.72844824913571400000	      2.15837727935443540000	    -93.09221516738590200000	     -2.24934350077560150000	     -0.00000000000006530540	     -0.00000000000000251265	      0.48475628257600112000	     15.67813319783848400000	      8.67227682598025320000	    -33.05140872882079600000	     22.95161960371022000000	      0.00000000000002871276	     -0.00000000000007385768	    -14.68697914727366400000	    -12.42202523428978000000	     -9.35947828749237230000	    -24.27596714536169700000	    -19.85253614954330500000	     -1.09778030824128000000	     84.32495242790157900000	     70.64447487718365400000	      0.00000000000000019460	      0.00000000000003298590	     -2.65181236584078220000	    -22.38123184296057700000	     -2.76424735359542420000	     94.93292868574003800000	     94.48518246724918900000	      0.00000000000009251697	      0.00000000000000136675
      1.00800000000000000000	      0.20912332980639731000	      7.80565835998793390000	     -0.40126225959645972000	      0.77122566016977423000	      0.97591357867977269000	     -0.29162793206542326000	     32.61810863100709000000	     -5.60312933948446010000	      2.07364492391102000000	    -92.71397809816572500000	     -2.17538540572305420000	     -0.00000000000006547593	     -0.00000000000000249319	      0.03028982575815643300	     15.52700467050606300000	      8.80063842287104410000	    -32.70029251357545500000	     22.73041585133425000000	      0.00000000000002867910	     -0.00000000000007356440	    -14.67465708789011800000	    -12.28271049832242700000	     -9.45257113242512940000	    -24.48290029288115800000	    -19.82093545934362700000	     -1.13651964435392670000	     84.36853655001519300000	     70.62492517274908700000	      0.00000000000000020916	      0.00000000000003308923	     -2.53069940673940910000	    -22.30854028364524700000	     -2.81485249342130570000	     95.10522501727706400000	     94.47593940979911100000	      0.00000000000009281087	      0.00000000000000131408
      1.00900000000000010000	      0.20998528913146564000	      7.68622118711453870000	     -0.39015783388939096000	      0.77140741977033334000	      0.97646117358432538000	     -0.29153352612884298000	     32.80297449139431600000	     -5.47550324154532660000	      1.98677392647725080000	    -92.32803117707963700000	     -2.10180229092917030000	     -0.00000000000006564635	     -0.00000000000000247231	     -0.42413209068781793000	     15.37124555337393200000	      8.92607528574551700000	    -32.34567736337808700000	     22.49809855037905100000	      0.00000000000002861915	     -0.00000000000007329943	    -14.66057712641109800000	    -12.14067497164579700000	     -9.54444897384654210000	    -24.69123891557937600000	    -19.78986123567091900000	     -1.17803177791713170000	     84.41487777980451300000	     70.60825655146734900000	      0.00000000000000022276	      0.00000000000003319257	     -2.41330196646866790000	    -22.23573905095311400000	     -2.86473137650578560000	     95.28032139550866500000	     94.46256903408580300000	      0.00000000000009310414	      0.00000000000000124412
      1.01000000000000000000	      0.21032901558291031000	      7.56441448963856100000	     -0.37883889457133679000	      0.77159667267802179000	      0.97701316215759360000	     -0.29143708644979527000	     32.98348485028919400000	     -5.34554466463055800000	      1.89795840682206450000	    -91.93440203731741200000	     -2.02869223366487180000	     -0.00000000000006581711	     -0.00000000000000245191	     -0.87840886340411706000	     15.21091398307931200000	      9.04833686874250450000	    -31.98772565814822100000	     22.25464083954010200000	      0.00000000000002857902	     -0.00000000000007305393	    -14.64478612641620000000	    -11.99601361165602000000	     -9.63506662047053730000	    -24.90088539596443700000	    -19.75930447378845400000	     -1.22221257124730840000	     84.46381805729596700000	     70.59457682724674000000	      0.00000000000000023673	      0.00000000000003329559	     -2.29956849191585280000	    -22.16288300953702300000	     -2.91376641979781590000	     95.45807150602159700000	     94.44521737987713500000	      0.00000000000009339733	      0.00000000000000118884
      1.01100000000000010000	      0.21020955945827713000	      7.44029346626318500000	     -0.36739276545079841000	      0.77179333622151736000	      0.97756942102585775000	     -0.29133842899752471000	     33.15958937789547200000	     -5.21322844947259420000	      1.80739682737818530000	    -91.53311477265506800000	     -1.95615473245131870000	     -0.00000000000006598819	     -0.00000000000000242927	     -1.33245700779564590000	     15.04607606956139100000	      9.16717946366373940000	    -31.62659652465836000000	     22.00001794909934500000	      0.00000000000002857175	     -0.00000000000007276908	    -14.62734900507308700000	    -11.84882176445704300000	     -9.72437822825974330000	    -25.11174147172867100000	    -19.72925593141148700000	     -1.26895639075457490000	     84.51520368004638300000	     70.58397271206699500000	      0.00000000000000025099	      0.00000000000003339910	     -2.18944142622665480000	    -22.09002792738556300000	     -2.96184104528384930000	     95.63833290653140300000	     94.42403908342038200000	      0.00000000000009368950	      0.00000000000000115011
      1.01200000000000000000	      0.20965032790384136000	      7.31391956616444890000	     -0.35590743618239978000	      0.77199731073619005000	      0.97812977166394188000	     -0.29123737578496495000	     33.33127958364550400000	     -5.07853194520965890000	      1.71529859462558920000	    -91.12419906789826000000	     -1.88429744034529210000	     -0.00000000000006616315	     -0.00000000000000240520	     -1.78615494257852550000	     14.87681225886850600000	      9.28235994599013740000	    -31.26245902870800500000	     21.73421140574208700000	      0.00000000000002856875	     -0.00000000000007246001	    -14.60829731034141700000	    -11.69920157692565800000	     -9.81233402936685550000	    -25.32371432260845300000	    -19.69970509037889500000	     -1.31815594990700990000	     84.56888182860659200000	     70.57651150168754800000	      0.00000000000000026681	      0.00000000000003350207	     -2.08286762198986210000	    -22.01722884416476600000	     -3.00884285449512050000	     95.82096703305225600000	     94.39919925464720100000	      0.00000000000009398230	      0.00000000000000111577
      1.01300000000000010000	      0.20867590565646998000	      7.18535690625244520000	     -0.34447231022314084000	      0.77220848668028341000	      0.97869403709172709000	     -0.29113375288964022000	     33.49854738461758800000	     -4.94143403752849240000	      1.62187802024762970000	    -90.70768345873061400000	     -1.81323004026134150000	     -0.00000000000006634383	     -0.00000000000000238066	     -2.23938412538917220000	     14.70321284597207300000	      9.39364192309616010000	    -30.89548181202894000000	     21.45720632538479900000	      0.00000000000002856563	     -0.00000000000007213222	    -14.58766683579506400000	    -11.54725712739302600000	     -9.89888327260112000000	    -25.53671203363389700000	    -19.67064111952394600000	     -1.36970263172861580000	     84.62470366295006800000	     70.57223905104282800000	      0.00000000000000028509	      0.00000000000003360837	     -1.97979103633125790000	    -21.94454116901254500000	     -3.05466168115883050000	     96.00583966681098500000	     94.37087119357603600000	      0.00000000000009427576	      0.00000000000000108941
      1.01400000000000000000	      0.20730868804613922000	      7.05467255116345540000	     -0.33317771853622191000	      0.77242674430122538000	      0.97926203630852271000	     -0.29102739125249877000	     33.66138910553408400000	     -4.80191567260643120000	      1.52735401813955440000	    -90.28359602772698600000	     -1.74306380320905800000	     -0.00000000000006652360	     -0.00000000000000235643	     -2.69202521067936210000	     14.52537817648953200000	      9.50079580168712570000	    -30.52583383096502000000	     21.16899192152977300000	      0.00000000000002854226	     -0.00000000000007175887	    -14.56549374803941200000	    -11.39309471358726400000	     -9.98397429739850220000	    -25.75064394199882000000	    -19.64205292156592700000	     -1.42348656130527920000	     84.68252424188196400000	     70.57118027903555900000	      0.00000000000000030427	      0.00000000000003372017	     -1.88015371624160200000	    -21.87202050676011600000	     -3.09919005772270320000	     96.19282101791557700000	     94.33923591860903500000	      0.00000000000009456984	      0.00000000000000105107
      1.01500000000000010000	      0.20556719959224201000	      6.92193667744671880000	     -0.32211453870075901000	      0.77265195367912509000	      0.97983358161721246000	     -0.29091812737670258000	     33.81980735989215200000	     -4.65996039363821970000	      1.43194951299418660000	    -89.85196472118788300000	     -1.67391092451265690000	     -0.00000000000006669669	     -0.00000000000000233222	     -3.14395629067549450000	     14.34341874498829300000	      9.60359922055993390000	    -30.15368464807131600000	     20.86956203566169100000	      0.00000000000002850074	     -0.00000000000007135853	    -14.54181264008286500000	    -11.23682296805329300000	    -10.06755480143861100000	    -25.96542074413346800000	    -19.61392922644935400000	     -1.47939669896915740000	     84.74220256866057400000	     70.57333962601143200000	      0.00000000000000032295	      0.00000000000003383636	     -1.78389642882560700000	    -21.79972253989804500000	     -3.14232356965525520000	     96.38178582404536600000	     94.30448160489189000000	      0.00000000000009486203	      0.00000000000000101328
